<?xml version="1.0" encoding="utf-8"?>
<!-- Generator: Adobe Illustrator 27.2.0, SVG Export Plug-In . SVG Version: 6.00 Build 0)  -->
<svg version="1.1" id="Layer_1" xmlns="http://www.w3.org/2000/svg" xmlns:xlink="http://www.w3.org/1999/xlink" x="0px" y="0px"
	 viewBox="0 0 92.3 132.3" style="enable-background:new 0 0 92.3 132.3;" xml:space="preserve">
<style type="text/css">
	.st0{fill:#ED5000;}
</style>
<path class="st0" d="M87.2,24.9L74,40.6C78.1,35.7,82.6,30.3,87.2,24.9c-5.6-10.8-15.3-19-27-22.7l0,0C55.8,0.8,51,0,46.1,0
	C32,0,19.3,6.4,10.8,16.5C4.1,24.5,0,34.9,0,46.1c0,8.7,1.7,15.7,4.6,22c4.8,10.6,12.8,19.2,21,29.9l34.1-40.5
	c-3.3,3.9-8.1,6.3-13.5,6.3c-9.8,0-17.7-7.9-17.7-17.7c0-4.3,1.5-8.3,4.1-11.3c3.3-3.8,8.1-6.3,13.6-6.3c9.8,0,17.7,7.9,17.7,17.7
	c0,4-1.4,7.7-3.6,10.6L25.6,98c2.6,3.4,5.3,7.3,7.9,11.3c9.4,14.5,6.8,23.1,12.8,23.1s3.4-8.7,12.8-23.2c15.4-24.1,33.3-35,33.3-63
	C92.4,38.5,90.5,31.3,87.2,24.9z"/>
</svg>
