<?xml version="1.0" encoding="utf-8"?>
<!-- Generator: Adobe Illustrator 28.1.0, SVG Export Plug-In . SVG Version: 6.00 Build 0)  -->
<svg version="1.1" id="Layer_1" xmlns="http://www.w3.org/2000/svg" xmlns:xlink="http://www.w3.org/1999/xlink" x="0px" y="0px"
	 viewBox="0 0 100 100" style="enable-background:new 0 0 100 100;" xml:space="preserve">
<style type="text/css">
	.st0{fill:#ED5000;}
</style>
<path class="st0" d="M2.3,0H70c1.4,0.2,2,1.1,2,2.5c0,1.6,0,5.1,0,10.6c0,0.3,0.2,0.5,0.5,0.6l15.8,2.7c1.6,0.3,2.3,1.2,2,2.8L89,27
	c-0.1,0.4,0.1,0.7,0.5,0.8l10.5,3v1.6c-5.1,21.8-10.1,43.6-15.1,65.4c-0.2,1-0.8,1.7-1.7,2.1h-1c-21.8-5.2-43.6-10.2-65.5-15.1
	c-3.7-0.8-1.5-4.9-1.1-7.3c0.1-0.4-0.1-0.7-0.5-0.7c-2-0.3-3.8-0.6-5.3-0.9c-1.7-0.3-2.2-1.4-1.7-3.2c0.1-0.5,0-0.7-0.5-0.6
	C4.3,72.5,1.7,72,0,70.8V22v-9.5v-2l0.3-9c0-0.3,0.2-0.6,0.4-0.8C1.1,0.3,1.6,0.1,2.3,0z M68,4.8C68,4.4,67.6,4,67.2,4H4.9
	C4.4,4,4,4.4,4,4.8v62.3C4,67.6,4.4,68,4.9,68h62.3c0.5,0,0.8-0.4,0.8-0.8V4.8z M80.4,23.2c0.5,0.5,0.9,1.2,0.8,1.9
	c-2.6,15.4-5.2,30.6-7.8,45.5c-0.2,0.9-0.9,1.5-1.8,1.5c-18.7-0.1-38.3-0.1-58.6,0c-0.2,0-0.3,0.1-0.3,0.3c0,0,0,0,0,0.1
	c0,0,0,0.1,0.1,0.1c0.1,0.1,0.1,0.1,0.2,0.1c1.9,0.2,3.1,0.3,3.6,0.4c19.4,3.3,38.9,6.6,58.4,10c0.2,0,0.4-0.1,0.5-0.3l10.7-62.2
	c0-0.2-0.1-0.4-0.3-0.5l-13.2-2.4C72.2,17.6,72,17.7,72,18l0,3.2c0,0.3,0.2,0.5,0.5,0.5l7.1,1.1C79.9,22.9,80.2,23,80.4,23.2z
	 M72.1,52.7c0,0.1,0.1,0.1,0.1,0.1l0.1,0c0.1,0,0.1,0,0.1-0.1l4.4-26.2c0-0.1,0-0.1-0.1-0.2c0,0,0,0,0,0l-4.6-0.6
	c-0.1,0-0.1,0-0.2,0.1c0,0,0,0,0,0L72.1,52.7z M78.9,85.9c-0.2,1-1.2,1.6-2.2,1.5l-56.4-9.6c-0.4-0.1-0.6,0.1-0.7,0.5l-0.5,2.5
	c-0.1,0.4,0.1,0.6,0.5,0.7L81,95.5c0.2,0,0.4-0.1,0.4-0.3c0,0,0,0,0,0l14.1-61.5c0.1-0.2-0.1-0.5-0.3-0.5c0,0,0,0,0,0l-6.7-1.5
	c-0.2,0-0.3,0.1-0.4,0.2c0,0,0,0,0,0l-0.6,3.3c0,0.2,0.1,0.3,0.3,0.3c2.1,0.2,2.9,1.4,2.4,3.4c-3.3,14.4-6.6,28.7-9.8,43
	C80,83.5,79.2,84.4,78.9,85.9z"/>
<path class="st0" d="M64,56c0,1.1-0.9,2-2,2c0,0,0,0,0,0H10c-1.1,0-2-0.9-2-2l0,0V10c0-1.1,0.9-2,2-2h52c1.1,0,2,0.9,2,2l0,0V56z
	 M45.3,34.1c-0.1,0.1-0.2,0.2-0.3,0.2c-0.4,0.2-0.6,0.5-0.7,0.8c-0.5,2.1-3.9,6.3-0.3,7.7c5.4,2.1,10.9,3.9,11.8,10.6
	c0,0.3,0.2,0.5,0.6,0.5l2.9,0.1c0.3,0,0.5-0.2,0.5-0.5L60,13c0-0.6-0.5-1-1-1c0,0,0,0,0,0H12.8c-0.4,0-0.8,0.3-0.8,0.8v40.5
	c0,0.4,0.3,0.7,0.7,0.7l2.5,0c0.5,0,0.8-0.2,0.8-0.7c0.9-6,6-8.1,11.1-9.9c2.6-0.9,2.9-3.5,1.4-5.5c-0.5-0.7-0.9-1.5-1-2.3
	c-0.1-0.3-0.2-0.6-0.4-0.8c-1.5-1.6-1.9-3.6-1-5.8c0.1-0.3,0.1-0.7,0.1-1c-2.1-8.3,2.5-15.1,11.5-13.8c1.7,0.2,3,1.4,4.6,1.9
	c4.7,1.6,4.7,7.8,3.5,11.6c-0.1,0.3-0.1,0.7,0,1C46.7,30.6,46.5,32.4,45.3,34.1z M41.6,32c0.9-0.5,1-1.1,0.3-1.9
	c-0.3-0.3-0.4-0.8-0.3-1.3c0.7-2.5,1.6-6.1,0.1-8.5c-0.2-0.3-0.5-0.6-0.9-0.7c-2.7-0.8-3.8-2.2-7-1.4c-5.2,1.2-4.4,6.5-3.5,10.5
	c0.2,0.7-0.1,1.5-0.6,2c-0.3,0.3-0.3,0.5,0,0.8l1,1c0.2,0.2,0.3,0.5,0.4,0.8c0.3,1.5,0.9,2.8,1.8,3.9c0.2,0.3,0.4,0.6,0.4,1
	c0.1,2.8,0.6,5.9-2.4,7.6c-3.6,2.2-9.6,3-11,7.5c-0.1,0.3,0.1,0.6,0.3,0.6c0,0,0.1,0,0.2,0h31c0.3,0,0.5-0.2,0.5-0.5
	c0,0,0-0.1,0-0.1c-1.5-7.7-14-4-13.5-13.7c0.1-1.3,0.4-2.4,1-3.3c0.7-1.1,1.2-2.2,1.4-3.4C41,32.6,41.2,32.2,41.6,32z"/>
</svg>
