<svg xmlns="http://www.w3.org/2000/svg" viewBox="0 0 40.357 46.052" fill="none">
  <g clip-path="url(#clip0_13_9128)" transform="translate(-2.25,-1.81348)">
    <path fill-rule="evenodd" clip-rule="evenodd" d="M 33.2927,1.81348 H 11.5601 c -5.14342,0 -9.31401,4.17058 -9.31401,9.31392 V 32.86 c 0,5.1434 4.17059,9.314 9.31401,9.314 h 4.6867 c 1.3517,0 1.9653,0.1134 2.607,0.4828 0.7064,0.4067 1.0996,1.4769 1.491,2.5422 0.4913,1.3373 0.9798,2.6669 2.0816,2.6669 1.0597,0 1.5521,-1.2441 2.0624,-2.5334 0.4428,-1.1189 0.8992,-2.272 1.7515,-2.6757 0.6888,-0.3262 1.207,-0.4828 2.4139,-0.4828 h 4.6385 c 5.1433,0 9.3139,-4.1706 9.3139,-9.314 V 11.1274 c 0,-5.14334 -4.1706,-9.31392 -9.3139,-9.31392 z M 22.3774,35.2991 c -5.5522,0 -10.7214,-2.7476 -13.83125,-7.3529 -0.52779,-0.7813 -0.32081,-1.8421 0.46052,-2.3699 0.78134,-0.5278 1.84213,-0.3208 2.36993,0.4606 2.4733,3.6583 6.587,5.8471 11.0008,5.8471 4.4138,0 8.5275,-2.1888 11.006,-5.8523 0.5278,-0.7814 1.5886,-0.9883 2.3699,-0.4605 0.7813,0.5277 0.9883,1.5885 0.4605,2.3698 -3.115,4.6105 -8.2842,7.3581 -13.8364,7.3581 z m 7.765,-23.8956 v 3.1046 h -3.1047 v 3.1047 h 3.1047 v 3.1046 h -3.1047 v 3.1047 h -3.1046 v -3.1047 h -3.1047 v 3.1047 h -3.1046 v -3.1047 h -3.1047 v -3.1046 h 3.1047 v -3.1047 h -3.1047 v -3.1046 h 3.1047 V 8.2988 h 3.1046 v 3.1047 h 3.1047 V 8.2988 h 3.1046 v 3.1047 z m -9.314,6.2093 h 3.1047 v -3.1047 h -3.1047 z" fill="url(#paint0_linear_13_9128)"/>
  </g>
  <defs>
    <!-- <linearGradient id="paint0_linear_13_9128" x1="34.3413" y1="40.3946" x2="-6.34781" y2="4.11137" gradientUnits="userSpaceOnUse">
      <stop stop-color="#3C16D3"/>
      <stop offset="0.442708" stop-color="#1271FF"/>
      <stop offset="0.989583" stop-color="#2CF2FF"/>
    </linearGradient> -->
	<linearGradient id="paint0_linear_13_9128" x1="34.3413" y1="40.3946" x2="-6.34781" y2="4.11137" gradientUnits="userSpaceOnUse">
      <stop stop-color="#a6363a"/>
      <!-- <stop offset="0.442708" stop-color="#1271FF"/>
      <stop offset="0.989583" stop-color="#2CF2FF"/> -->
    </linearGradient>
    <clipPath id="clip0_13_9128">
      <rect width="193.883" height="46.0524" fill="#FFFFFF" transform="translate(2.25,1.81348)"/>
    </clipPath>
  </defs>
</svg>