<?xml version="1.0" encoding="iso-8859-1"?>
<!-- Uploaded to: SVG Repo, www.svgrepo.com, Generator: SVG Repo Mixer Tools -->
<svg fill="#a6363a" height="800px" width="800px" version="1.1" id="Layer_1" xmlns="http://www.w3.org/2000/svg" xmlns:xlink="http://www.w3.org/1999/xlink" 
	 viewBox="0 0 512 512" xml:space="preserve">
<g>
	<g>
		<path d="M368.941,90.353H181.7V22.588C181.7,10.114,171.586,0,159.112,0H98.876C86.401,0,76.288,10.114,76.288,22.588
			s10.113,22.588,22.588,22.588h37.647v45.177h-16.053c-62.276,0-112.941,50.665-112.941,112.941V384
			c0,12.475,10.114,22.588,22.588,22.588h106.406v82.824c0,12.475,10.114,22.588,22.588,22.588
			c12.475,0,22.588-10.114,22.588-22.588v-82.824H256h225.882c12.475,0,22.588-10.114,22.588-22.588V225.882
			C504.471,151.151,443.672,90.353,368.941,90.353z M233.412,225.882v135.529H52.706V203.294c0-37.365,30.399-67.765,67.765-67.765
			h16.053v67.765c0,12.475,10.114,22.588,22.588,22.588c12.475,0,22.588-10.114,22.588-22.588v-67.765h86.317
			C246.511,159.526,233.412,191.2,233.412,225.882z M459.294,361.412H278.588V225.882c0-49.821,40.532-90.353,90.353-90.353
			s90.353,40.532,90.353,90.353V361.412z"/>
	</g>
</g>
<g>
	<g>
		<path d="M391.529,271.059h-45.176c-12.475,0-22.588,10.114-22.588,22.588c0,12.475,10.114,22.588,22.588,22.588h45.176
			c12.475,0,22.588-10.114,22.588-22.588C414.118,281.172,404.004,271.059,391.529,271.059z"/>
	</g>
</g>
</svg>