<?xml version="1.0" encoding="utf-8"?>
<!-- Generator: Adobe Illustrator 27.0.0, SVG Export Plug-In . SVG Version: 6.00 Build 0)  -->
<svg version="1.1" id="Layer_1" xmlns:v="https://vecta.io/nano"
	 xmlns="http://www.w3.org/2000/svg" xmlns:xlink="http://www.w3.org/1999/xlink" x="0px" y="0px" viewBox="0 0 315 315"
	 style="enable-background:new 0 0 315 315;" xml:space="preserve">
<style type="text/css">
	.st0{fill:#A6363A;}
</style>
<path class="st0" d="M141,0C106.6,0,76,22.2,65.3,54.9C43.1,59.5,24,73.4,12.8,93c-17.3,29.9-13.3,67.4,9.8,93
	c-7.1,21.4-4.7,44.9,6.7,64.3c17.2,30,51.7,45.3,85.5,38.2c15,16.9,36.5,26.5,59.1,26.5c34.5,0,65.1-22.2,75.7-54.9
	c22.2-4.6,41.3-18.5,52.4-38.1c17.4-29.9,13.4-67.4-9.7-93v-0.1c7.1-21.4,4.7-44.9-6.7-64.4c-17.2-29.9-51.7-45.2-85.4-38.1
	C185.2,9.5,163.6-0.1,141,0z M141,20.5l-0.1,0.1c13.9,0,27.2,4.8,37.9,13.7c-0.4,0.2-1.3,0.7-1.9,1.1l-62.7,36.2
	c-3.2,1.8-5.1,5.2-5.1,9v84.9l-27-15.6V79.6C82,47,108.4,20.5,141,20.5L141,20.5z M216.6,45.2c21.2,0,40.7,11.2,51.3,29.6
	c6.8,11.9,9.4,25.9,7,39.5c-0.4-0.3-1.3-0.7-1.8-1.1l-62.7-36.3c-3.2-1.8-7.1-1.8-10.3,0l-73.5,42.5V88.2l60.7-35.1
	C196.1,47.9,206.3,45.2,216.6,45.2L216.6,45.2z M61.4,77.4V152c0,3.7,1.9,7,5.1,9l73.4,42.3L112.9,219l-60.6-35
	c-28.2-16.3-37.8-52.4-21.5-80.6C37.6,91.4,48.5,82.2,61.4,77.4L61.4,77.4z M202,95.9l60.7,35c28.3,16.3,37.9,52.4,21.5,80.6
	l0.1,0.1c-6.9,11.9-17.8,21.1-30.7,25.8v-74.6c0-3.7-1.9-7.1-5.1-9L175,111.5L202,95.9z M157.4,121.6l30.9,17.9v35.7l-30.9,17.9
	l-30.9-17.9v-35.7L157.4,121.6z M206.1,149.8l27,15.6v70.1c0,32.6-26.5,59.1-59,59.1v-0.1c-13.8,0-27.2-4.8-37.8-13.7
	c0.4-0.2,1.4-0.7,1.9-1.1l62.7-36.2c3.2-1.8,5.2-5.2,5.1-9L206.1,149.8z M188.5,195.6v31.1l-60.7,35c-28.3,16.2-64.3,6.6-80.6-21.5
	h0.1c-6.9-11.8-9.4-25.9-7-39.5c0.4,0.3,1.3,0.7,1.8,1.1l62.7,36.3c3.2,1.8,7.1,1.8,10.3,0L188.5,195.6z"/>
</svg>
