<?xml version="1.0" encoding="UTF-8" standalone="no"?>
<svg
   width="210mm"
   height="297mm"
   viewBox="0 0 210 297"
   version="1.1"
   id="svg8"
   inkscape:version="1.1 (c68e22c387, 2021-05-23)"
   sodipodi:docname="Penguin.svg"
   xmlns:inkscape="http://www.inkscape.org/namespaces/inkscape"
   xmlns:sodipodi="http://sodipodi.sourceforge.net/DTD/sodipodi-0.dtd"
   xmlns="http://www.w3.org/2000/svg"
   xmlns:svg="http://www.w3.org/2000/svg"
   xmlns:rdf="http://www.w3.org/1999/02/22-rdf-syntax-ns#"
   xmlns:cc="http://creativecommons.org/ns#"
   xmlns:dc="http://purl.org/dc/elements/1.1/">
  <defs
     id="defs2" />
  <sodipodi:namedview
     id="base"
     pagecolor="#ffffff"
     bordercolor="#666666"
     borderopacity="1.0"
     inkscape:pageopacity="0.0"
     inkscape:pageshadow="2"
     inkscape:zoom="0.70710678"
     inkscape:cx="540.93669"
     inkscape:cy="511.2382"
     inkscape:document-units="mm"
     inkscape:current-layer="layer1"
     inkscape:document-rotation="0"
     showgrid="false"
     inkscape:window-width="1920"
     inkscape:window-height="1017"
     inkscape:window-x="-8"
     inkscape:window-y="-8"
     inkscape:window-maximized="1"
     inkscape:pagecheckerboard="0" />
  <metadata
     id="metadata5">
    <rdf:RDF>
      <cc:Work
         rdf:about="">
        <dc:format>image/svg+xml</dc:format>
        <dc:type
           rdf:resource="http://purl.org/dc/dcmitype/StillImage" />
      </cc:Work>
    </rdf:RDF>
  </metadata>
  <g
     inkscape:label="Layer 1"
     inkscape:groupmode="layer"
     id="layer1">
    <text
       xml:space="preserve"
       style="font-style:normal;font-weight:normal;font-size:10.5833px;line-height:1.25;font-family:sans-serif;fill:#000000;fill-opacity:1;stroke:none;stroke-width:0.264583"
       x="108.47916"
       y="114.1488"
       id="text1293"><tspan
         sodipodi:role="line"
         id="tspan1291"
         x="108.47916"
         y="114.1488"
         style="stroke-width:0.264583" /></text>
    <path
       style="fill:#eeeeee;fill-opacity:1;stroke-width:0.796477"
       d="m 12.196061,276.04974 c -0.954052,-1.54369 0.40802,-5.98353 3.303449,-10.76791 6.845172,-11.31103 10.250494,-19.66551 11.10911,-27.25462 0.404917,-3.57895 0.05253,-6.49203 -1.598926,-13.21523 -1.165095,-4.74334 -1.997024,-9.39114 -1.848736,-10.32846 0.225803,-1.4274 0.6862,-1.06366 2.834266,2.23928 4.196537,6.45266 5.946039,11.98443 6.356841,20.09981 0.44405,8.77198 -1.412167,16.04699 -5.732412,22.46684 -1.504989,2.23639 -2.56945,4.06617 -2.365471,4.06617 0.203978,0 2.061414,-0.85604 4.127646,-1.90236 13.000879,-6.5834 23.093393,-5.99575 40.709839,2.37035 10.21961,4.85334 20.78295,8.42348 29.38455,9.93125 6.901663,1.20978 6.174233,2.31445 -1.53579,2.33224 -7.91798,0.0181 -16.94122,-1.97341 -33.31842,-7.35425 -12.11137,-3.9793 -15.685616,-4.8422 -19.934472,-4.81267 -6.480293,0.0452 -12.703039,2.19484 -21.106649,7.29178 -9.112277,5.52675 -9.769729,5.83302 -10.384825,4.83778 z m 84.057866,-13.77199 c -10.90567,-2.35039 -18.30416,-8.96349 -21.96186,-19.63053 -1.15021,-3.35438 -1.4883,-6.52644 -1.44319,-13.54013 0.0704,-10.95496 1.60153,-19.3798 8.75493,-48.17491 7.15851,-28.8158 8.34753,-35.79089 8.82719,-51.78304 0.45568,-15.193 -0.60024,-24.1037 -4.2148,-35.567469 -4.07671,-12.929551 -8.89966,-20.063051 -16.35734,-24.193738 -3.84526,-2.129824 -4.97843,-2.364056 -11.436474,-2.364056 -6.226344,0 -7.760744,0.291097 -11.676795,2.214023 -10.943769,5.374275 -16.388937,16.939673 -18.206291,38.66974 -0.613531,7.33595 -0.580011,17.04904 0.122821,35.5781 0.742432,19.57501 0.750756,27.612 0.03597,34.64679 -1.560996,15.36122 -5.652097,26.80109 -11.670729,32.63455 -3.153421,3.05643 -2.485418,4.50578 -6.41442,-13.91735 C -0.24388313,145.94206 -2.8320121,105.59283 3.1300529,80.190579 4.8994109,72.651982 6.3601179,69.861395 13.35727,60.652055 19.26056,52.882416 21.089263,49.138711 22.126119,42.700412 24.275043,29.356824 39.515276,8.5704238 50.99464,3.3261938 61.472842,-1.4606498 73.930947,-1.0880036 89.928097,4.4907618 l 9.11481,3.178646 19.075623,0.009 c 11.13824,0.006 18.76081,0.302476 18.319,0.715069 -0.41616,0.388631 -10.07545,5.8078802 -21.46507,12.0427422 -35.829323,19.613494 -43.106373,26.389128 -34.641983,32.254921 1.75487,1.216165 5.67762,4.829259 8.71721,8.029127 12.691243,13.360587 17.970383,34.118024 15.950393,62.716383 -1.59876,22.63452 -5.450923,40.5433 -15.121563,70.30054 -8.11482,24.96983 -8.26403,25.63423 -8.31303,37.01973 -0.0414,9.60903 0.0537,10.20152 2.35987,14.71087 2.75151,5.38018 8.57854,10.5285 17.003613,15.02316 5.1064,2.72418 5.19042,2.81756 2.49655,2.77539 -1.53321,-0.0241 -4.759463,-0.46862 -7.169443,-0.98801 z M 31.306434,55.876229 c 12.67867,-4.473404 21.938834,-14.572721 21.938834,-23.926897 0,-2.97554 -0.430505,-4.107657 -2.256303,-5.93347 -3.13337,-3.133344 -8.019012,-4.508905 -11.881164,-3.345089 -7.487212,2.2562 -11.922782,9.026988 -14.446204,22.051754 -0.848697,4.380602 -1.932875,8.973726 -2.409256,10.206929 -0.476397,1.233174 -0.866171,2.398043 -0.866171,2.588535 0,0.929524 4.958536,0.108974 9.920264,-1.641762 z M 97.351717,25.225716 c 7.093643,-3.41848 19.117453,-10.339152 18.687633,-10.75629 -0.14885,-0.144495 -3.20123,0.208614 -6.78316,0.784276 -15.708413,2.525077 -24.948283,7.042859 -24.948283,12.198288 0,1.830479 0.19004,1.91242 3.28696,1.417194 1.80781,-0.28899 6.19839,-1.928645 9.75685,-3.643468 z m -27.73094,-8.340938 c 2.64138,-4.031256 -1.57674,-8.3388282 -5.59042,-5.708962 -2.20114,1.442239 -2.768598,5.00485 -1.068044,6.705404 1.672484,1.672468 5.261644,1.135369 6.658464,-0.996442 z"
       id="path1313" />
  </g>
</svg>
